<!DOCTYPE svg PUBLIC "-//W3C//DTD SVG 1.1//EN" "http://www.w3.org/Graphics/SVG/1.1/DTD/svg11.dtd">
<!-- Uploaded to: SVG Repo, www.svgrepo.com, Transformed by: SVG Repo Mixer Tools -->
<svg fill="#e72d2d" height="800px" width="800px" version="1.1" id="Layer_1" xmlns="http://www.w3.org/2000/svg" xmlns:xlink="http://www.w3.org/1999/xlink" viewBox="0 0 512 512" xml:space="preserve">
<g id="SVGRepo_bgCarrier" stroke-width="0"/>
<g id="SVGRepo_tracerCarrier" stroke-linecap="round" stroke-linejoin="round"/>
<g id="SVGRepo_iconCarrier"> <g> <g> <path d="M292.382,121.665c-20.059-20.059-52.696-20.06-72.759,0c-3.459,3.459-3.459,9.068,0,12.526 c3.458,3.459,9.066,3.459,12.526,0c13.152-13.153,34.555-13.151,47.705,0c1.73,1.729,3.998,2.595,6.264,2.595 s4.534-0.865,6.264-2.595C295.842,130.732,295.842,125.123,292.382,121.665z"/> </g> </g> <g> <g> <path d="M438.877,430.45l-14.078-81.343c-5.714-32.874-23.489-59.026-47.536-69.953c-1.997-0.911-3.99-1.998-5.919-3.23 c-20.102-12.85-33.093-41.287-33.093-72.446v-43.451c0-31.372-6.517-61.779-19.363-90.367 c-9.731-21.731-22.88-41.655-39.069-59.202c-5.592-6.093-13.221-9.774-21.463-10.367c-9.87-0.735-19.419,3.042-26.168,10.353 c-16.292,17.675-29.523,37.786-39.325,59.78c-0.014,0.032-0.026,0.063-0.04,0.094c-0.014,0.034-0.03,0.069-0.045,0.103 c-1.392,3.137-2.7,6.27-3.875,9.298c-10.041,25.716-15.133,52.735-15.133,80.308v13.027c0,4.892,3.965,8.858,8.858,8.858 s8.858-3.966,8.858-8.858v-13.027c0-25.359,4.684-50.211,13.926-73.88c0.443-1.14,0.918-2.303,1.397-3.466h98.397 c10.17,24.607,15.332,50.595,15.332,77.346V450.26h-36.773v-27.417c0-4.892-3.965-8.858-8.858-8.858s-8.858,3.966-8.858,8.858 v71.435h-20.078V387.783c0-5.536,4.503-10.039,10.039-10.039c5.536,0,10.039,4.503,10.039,10.039v5.534 c0,4.892,3.965,8.858,8.858,8.858s8.858-3.966,8.858-8.858v-5.534c0-15.304-12.451-27.754-27.754-27.754 c-15.304,0-27.754,12.451-27.754,27.754v62.477h-36.771V201.706c0-4.892-3.965-8.858-8.858-8.858s-8.858,3.966-8.858,8.858v1.772 c0,31.136-12.991,59.569-33.1,72.439c-1.956,1.254-3.943,2.337-5.925,3.232c-24.055,10.931-41.821,37.085-47.52,69.961 l-14.102,81.337c-0.783,4.512,2.002,8.876,6.422,10.066L173.77,465.9v37.243c0,4.892,3.965,8.858,8.858,8.858h146.768 c4.893,0,8.858-3.966,8.858-8.858V465.9l94.202-25.386C436.876,439.323,439.659,434.96,438.877,430.45z M215.128,64.965 c8.159-15.401,18.238-29.659,30.083-42.509c3.06-3.315,7.39-5.018,11.86-4.697c3.731,0.269,7.176,1.93,9.714,4.695 c11.88,12.876,21.966,27.132,30.106,42.512H215.128z M173.77,447.553l-81.812-22.042l3.475-20.029h78.337V447.553z M173.77,387.766H98.504l6.174-35.63c4.628-26.694,18.957-48.481,37.375-56.849c2.744-1.239,5.493-2.738,8.169-4.451 c9.148-5.856,17.117-14.144,23.548-24.107V387.766z M228.255,494.286h-36.771v-26.309h36.771V494.286z M320.537,494.285h-36.773 v-26.309h36.773V494.285z M338.253,447.553v-39.505c0-0.008,0.001-0.015,0.001-0.024v-2.543h20.502 c4.893,0,8.858-3.966,8.858-8.858s-3.965-8.858-8.858-8.858h-20.502V274.651c0-0.008-0.001-0.015-0.001-0.022v-7.896 c6.432,9.97,14.398,18.267,23.553,24.119c2.629,1.679,5.357,3.168,8.118,4.427c18.442,8.379,32.781,30.167,37.419,56.855 l6.167,35.633h-25.228c-4.893,0-8.858,3.966-8.858,8.858s3.965,8.858,8.858,8.858h28.295l3.466,20.029L338.253,447.553z"/> </g> </g> </g>
</svg>